# xmcd
#
# Track frame offsets:
# 150
# 18585
# 49035
# 68992
# 94403
# 118850
# 143563
# 158707
# 176484
#
# Disc length: 2750 seconds
#
#
# Revision: 0
# Processed by: cddbd v1.5.2PL0 Copyright (c) Steve Scherf et al.
# Submitted via: FreeRIP 2.60 
#
DISCID=780abc09
DTITLE=Captured - Christ and Flora Hymus
DYEAR=2006
DGENRE=Christian
TTITLE0=Blessed Be
TTITLE1=Mourning into Dancing
TTITLE2=Resting PLace
TTITLE3=In this Place
TTITLE4=Captured
TTITLE5=Peace of God
TTITLE6=Beautiful
TTITLE7=Father
TTITLE8=Know You More
EXTD=
EXTT0=
EXTT1=
EXTT2=
EXTT3=
EXTT4=
EXTT5=
EXTT6=
EXTT7=
EXTT8=
PLAYORDER=
